<?xml version="1.0" standalone="no"?>
<!DOCTYPE svg PUBLIC "-//W3C//DTD SVG 20010904//EN"
 "http://www.w3.org/TR/2001/REC-SVG-20010904/DTD/svg10.dtd">
<svg version="1.0" xmlns="http://www.w3.org/2000/svg"
 width="452.000000pt" height="95.000000pt" viewBox="0 0 452.000000 95.000000"
 preserveAspectRatio="xMidYMid meet">

<g transform="translate(0.000000,95.000000) scale(0.100000,-0.100000)"
fill="#000000" stroke="none">
<path d="M2250 890 l-75 -40 3 -232 c3 -194 1 -236 -11 -253 -13 -16 -19 -18
-40 -8 -20 9 -53 66 -142 242 -105 210 -118 231 -141 231 -27 0 -22 9 -213
-393 -22 -47 -40 -71 -57 -78 -16 -6 -24 -15 -22 -27 3 -14 17 -17 96 -20 87
-3 92 -2 92 18 0 11 -8 23 -17 26 -56 18 -55 15 -28 72 l24 53 98 -3 c96 -3
97 -3 114 -33 10 -16 21 -42 24 -57 6 -25 4 -28 -16 -28 -33 0 -53 -15 -46
-34 6 -14 33 -16 221 -16 187 0 215 2 220 16 4 10 -3 23 -19 36 l-26 20 3 238
c3 231 4 239 26 262 22 24 29 48 15 48 -5 0 -42 -18 -83 -40z m-401 -284 c17
-35 31 -67 31 -70 0 -3 -29 -6 -65 -6 -41 0 -65 4 -65 11 0 19 52 129 61 129
4 0 22 -29 38 -64z"/>
<path d="M2780 890 l-75 -40 4 -239 c3 -235 3 -240 -18 -253 -12 -7 -21 -21
-21 -30 0 -16 11 -18 95 -18 88 0 95 1 95 20 0 10 -9 24 -20 30 -17 9 -20 21
-20 83 0 85 21 137 62 151 22 8 32 6 49 -10 19 -17 21 -27 17 -113 -4 -83 -7
-96 -27 -112 -43 -35 -21 -49 79 -49 81 0 90 2 90 18 0 11 -9 27 -20 37 -19
17 -20 26 -14 121 6 94 5 105 -15 137 -25 41 -61 67 -93 67 -13 0 -47 -18 -76
-41 l-54 -40 4 125 c3 113 5 127 26 148 22 24 29 48 15 48 -5 0 -42 -18 -83
-40z"/>
<path d="M458 820 l-17 -30 -51 20 c-93 37 -170 22 -273 -52 -66 -48 -97 -93
-97 -141 0 -44 10 -66 57 -124 l34 -42 -27 -47 c-26 -44 -27 -47 -10 -60 21
-15 96 -32 177 -41 68 -7 126 16 181 72 91 92 88 201 -7 256 -64 37 -74 35
-154 -33 l-73 -62 -29 32 c-111 124 36 223 197 132 30 -16 58 -30 63 -30 10 0
71 140 71 164 0 26 -24 18 -42 -14z m-93 -283 c33 -27 44 -92 22 -122 -18 -24
-78 -26 -151 -5 -75 21 -75 30 1 93 38 31 76 56 85 56 9 1 29 -9 43 -22z"/>
<path d="M803 828 c-98 -17 -216 -95 -253 -169 -42 -82 -17 -182 62 -256 92
-84 161 -100 260 -63 108 40 166 116 189 245 8 50 9 77 0 104 -11 37 -54 90
-96 117 -31 20 -111 31 -162 22z m64 -93 c31 -9 57 -24 66 -38 60 -92 32 -238
-55 -283 -41 -21 -77 -11 -147 42 -95 71 -124 156 -78 225 43 65 115 83 214
54z"/>
<path d="M1095 822 c-13 -13 -2 -34 22 -43 15 -6 31 -16 35 -22 4 -7 8 -94 8
-193 0 -190 -2 -198 -45 -206 -12 -2 -21 -13 -23 -26 l-3 -22 219 0 c252 0
224 -13 238 113 6 63 5 69 -11 65 -11 -2 -24 -20 -33 -46 -17 -52 -38 -62
-132 -62 -58 0 -71 3 -80 19 -11 21 -14 288 -4 340 5 24 13 33 38 39 20 5 31
14 31 26 0 17 -12 19 -128 21 -70 1 -129 -1 -132 -3z"/>
<path d="M4175 684 c-33 -14 -71 -33 -85 -44 l-25 -20 77 -148 77 -148 -69
-63 c-58 -51 -72 -71 -85 -113 -8 -28 -15 -55 -15 -60 0 -17 29 -7 35 12 8 27
59 40 186 47 118 7 129 2 104 -46 -19 -37 -19 -41 0 -41 8 0 30 24 49 53 72
112 65 121 -101 127 l-127 5 64 51 c136 108 210 204 210 270 0 38 -34 87 -75
110 -34 18 -36 18 -70 0 -25 -14 -35 -26 -35 -43 0 -12 4 -23 9 -23 22 0 71
-59 71 -86 0 -29 -45 -114 -60 -114 -12 0 -110 193 -110 217 0 9 9 27 21 39
35 37 18 44 -46 18z"/>
<path d="M2484 671 c-54 -40 -101 -91 -113 -124 -25 -64 -5 -149 46 -202 58
-60 127 -55 206 15 59 52 47 82 -20 49 -50 -24 -84 -14 -113 33 -27 44 -25
155 3 172 16 9 24 5 53 -28 34 -39 34 -39 73 -26 22 7 43 20 46 28 12 32 -74
112 -120 112 -12 0 -40 -13 -61 -29z"/>
<path d="M3219 660 c-80 -60 -102 -93 -107 -161 -9 -123 80 -217 177 -189 39
11 121 76 121 95 0 24 -15 25 -57 4 -31 -15 -46 -17 -67 -10 -23 9 -66 63 -66
84 0 4 43 27 95 52 107 49 119 69 68 117 -65 60 -94 61 -164 8z m76 -60 c17
-19 16 -20 -29 -41 -25 -13 -48 -20 -52 -17 -3 4 -1 23 6 42 13 42 45 49 75
16z"/>
<path d="M3487 668 c-38 -22 -39 -24 -30 -63 4 -22 8 -83 8 -136 0 -90 -2 -98
-24 -116 -39 -32 -19 -43 80 -43 72 0 91 3 96 16 3 9 -2 21 -15 29 -28 20 -34
53 -23 130 14 94 62 144 101 105 17 -17 20 -33 20 -115 0 -90 -2 -97 -26 -120
-14 -13 -23 -29 -19 -34 3 -7 44 -11 96 -11 74 0 91 3 96 16 4 10 -2 23 -14
33 -30 24 -33 43 -23 124 8 62 13 76 40 100 29 26 34 27 53 14 28 -18 37 -65
30 -151 -4 -49 -12 -75 -25 -88 -36 -36 -17 -48 77 -48 70 0 87 3 92 16 4 11
-2 23 -18 34 -23 18 -23 22 -20 133 l3 115 -37 41 c-54 60 -90 55 -171 -21
l-31 -29 -26 40 c-43 65 -85 66 -159 4 l-43 -36 -5 39 c-6 48 -28 54 -83 22z"/>
<path d="M700 262 c-48 -46 -54 -73 -9 -41 44 31 83 23 254 -55 195 -89 252
-90 295 -6 20 39 27 90 12 90 -4 0 -18 -20 -30 -45 -18 -37 -27 -45 -49 -45
-15 0 -107 32 -204 70 -97 39 -188 70 -202 70 -17 0 -41 -14 -67 -38z"/>
</g>
</svg>
